<svg width="145" height="32" viewBox="0 0 145 32" fill="none" xmlns="http://www.w3.org/2000/svg">
    <path d="M0 0V32H32V0H0ZM9.23883 2.04199C9.36427 2.52507 9.42765 3.02216 9.42744 3.52126C9.4277 4.42296 9.22143 5.31274 8.82447 6.12235C8.42751 6.93197 7.8504 7.63992 7.13739 8.1919C6.42439 8.74389 5.59444 9.12524 4.71119 9.30672C3.82795 9.48819 2.91487 9.46497 2.04199 9.23883V8.45945L5.47128 7.77826L2.04199 7.09552V6.33173L6.25067 5.61937L2.04199 4.90701V4.20868L7.40572 3.46515L2.04199 2.71538V2.04199H9.23883ZM2.04199 11.3323C2.53032 11.4235 3.02604 11.4694 3.52282 11.4694C5.63122 11.4694 7.65327 10.6319 9.14413 9.14101C10.635 7.65015 11.4726 5.6281 11.4726 3.5197C11.4725 3.02344 11.4265 2.52825 11.3354 2.04043H27.9737L21.4393 6.05894V13.5286L16.894 10.5435L8.84446 14.8083V29.9596H2.04199V11.3323ZM10.8865 29.3049L14.3157 26.3791L10.8865 27.3268V24.9653L14.3157 22.0395L10.8865 22.9872V20.6288L14.3157 17.7014L10.8865 18.6507V16.0351L15.8168 13.4241V29.9565H10.8865V29.3049ZM17.8604 13.6205L21.4456 15.9712V29.9565H17.8604V13.6205ZM23.4813 29.9565V29.1287L28.0454 25.5436L23.4813 27.0587V24.7845L28.0454 21.1993L23.4813 22.7144V20.4526L28.0454 16.8675L23.4813 18.3841V16.1161L28.0454 12.531L23.4813 14.0461V11.7781L28.0454 8.1929L23.4813 9.70958V7.20152L29.9565 3.22042V29.9565H23.4813Z" fill="black"/>
    <path d="M48.976 22.192C51.136 22.192 52.4 20.64 52.4 19.024C52.4 17.216 50.848 16 49.616 15.056C48.896 14.496 48.288 14.224 48.288 13.68C48.288 13.376 48.688 13.168 49.232 13.168C50.128 13.168 50.72 13.792 50.944 14.544C51.76 14 52.128 13.408 52.128 12.784C52.128 11.312 50.192 10.656 48.864 10.656C47.136 10.656 45.616 11.792 45.616 13.52C45.616 15.152 46.976 16.288 48.176 17.264C48.992 17.92 49.728 18.528 49.728 19.04C49.728 19.408 49.344 19.632 48.928 19.632C48.032 19.632 47.04 18.656 46.592 17.728L44.56 19.28C45.456 21.04 47.104 22.192 48.976 22.192ZM59.1131 22.144C61.4971 22.144 63.4491 20.256 63.4491 17.872C63.4491 15.584 61.6411 13.536 59.1451 13.536C57.7691 13.536 56.5851 14.16 55.7051 15.216L55.8971 15.456C55.1291 15.904 54.7931 16.8 54.7931 17.776C54.7931 20.048 56.6331 22.144 59.1131 22.144ZM57.3531 17.952C57.3531 17.04 57.9611 16.624 58.4571 16.624C58.6331 16.624 58.7931 16.672 58.9051 16.768C58.9371 16.688 58.9691 16.608 58.9691 16.512C58.9691 16.336 58.8891 16.128 58.7291 16.016C58.9051 15.984 59.0491 15.968 59.1931 15.968C60.1211 15.968 60.8891 16.72 60.8891 17.856C60.8891 19.104 59.9931 19.68 59.1291 19.68C58.2651 19.68 57.3531 19.088 57.3531 17.952ZM68.6544 22V16.656C68.7184 16.8 68.9264 16.944 69.1184 17.024V16.96C69.1184 16.56 69.2624 16.048 69.9664 16.048C70.6224 16.048 70.9264 16.496 70.9264 17.088V22H73.4864V16.768C73.4864 14.992 72.3664 13.616 70.5104 13.616C69.8704 13.616 69.1824 13.776 68.6544 14.112V13.728H66.0944V22H68.6544ZM78.9188 22V16.656C78.9828 16.8 79.1908 16.944 79.3828 17.024V16.96C79.3828 16.56 79.5268 16.048 80.2308 16.048C80.8868 16.048 81.1908 16.496 81.1908 17.088V22H83.7508V16.768C83.7508 14.992 82.6308 13.616 80.7748 13.616C80.1348 13.616 79.4468 13.776 78.9188 14.112V13.728H76.3588V22H78.9188ZM90.7671 22.16C91.9991 22.16 93.1991 21.888 94.0951 20.912L92.8471 19.152C92.2871 19.648 91.7431 19.808 91.1671 19.808C90.0791 19.808 89.2951 19.248 89.0391 18.448C89.3591 18.832 89.9351 19.104 90.8791 19.104C92.7351 19.104 94.3831 17.968 94.3831 16.288C94.3831 14.752 92.9751 13.6 90.8471 13.6C88.2551 13.6 86.3831 15.328 86.3831 17.872C86.3831 20.368 88.1911 22.16 90.7671 22.16ZM89.3751 16.624C89.7271 16.24 90.2871 16.032 90.9911 16.032C91.7431 16.032 92.0631 16.288 92.0791 16.56C92.0791 16.944 91.4711 17.184 90.6871 17.184C90.3511 17.184 89.8711 16.976 89.3751 16.624ZM99.3381 22V16.656C99.4021 16.8 99.6101 16.944 99.8021 17.024V16.96C99.8021 16.56 99.9461 16.048 100.65 16.048C101.306 16.048 101.61 16.496 101.61 17.088V22H104.17V16.768C104.17 14.992 103.05 13.616 101.194 13.616C100.554 13.616 99.8661 13.776 99.3381 14.112V13.728H96.7781V22H99.3381ZM107.203 22H109.763V10.832C109.619 10.816 109.475 10.8 109.331 10.8C108.227 10.8 107.203 11.536 107.203 12.848V22ZM115.639 22V13.744C115.527 13.744 115.399 13.728 115.287 13.728C114.119 13.728 113.079 14.368 113.079 15.728V22H115.639ZM112.967 12.48C112.967 12.976 112.983 13.472 113.255 14.048C113.399 13.328 114.023 13.12 114.615 12.928C115.191 12.736 115.719 12.576 115.719 11.84C115.719 11.168 115.287 10.752 114.471 10.752C113.335 10.752 112.967 11.552 112.967 12.48ZM122.887 22.112C124.327 22.112 125.447 21.504 126.295 20.288L124.631 18.72C124.103 19.424 123.511 19.648 122.855 19.648C121.767 19.648 121.095 18.976 121.095 17.888C121.095 16.752 121.831 16.064 122.935 16.064C123.975 16.064 124.599 16.352 124.887 17.328C125.655 16.944 126.007 16.448 126.007 15.904C126.007 14.896 124.775 13.6 122.791 13.6C120.455 13.584 118.519 15.408 118.519 17.888C118.519 20.416 120.423 22.112 122.887 22.112ZM128.929 22H131.489V16.72C131.553 16.896 131.649 17.008 131.985 17.088C131.985 16.464 132.353 16.016 132.881 16.016C133.377 16.016 133.665 16.464 133.665 17.168V22H136.225V16.768C136.225 15.04 135.169 13.648 133.345 13.648C132.625 13.648 131.969 13.872 131.489 14.224V10.8H131.441C131.329 10.8 131.201 10.768 131.089 10.768C129.969 10.768 128.929 11.472 128.929 12.848V22ZM138.94 15.968H139.884V20.096C139.884 21.424 140.908 22.08 141.948 22.08C143.18 22.08 143.948 21.2 143.948 20.08C143.948 19.568 143.772 19.216 143.772 19.248C143.596 19.552 143.212 19.744 142.908 19.744C142.652 19.744 142.444 19.6 142.444 19.28V15.968H142.54C143.868 15.968 144.156 14.8 144.156 13.728H142.444V11.84C142.22 11.776 141.98 11.744 141.756 11.744C140.764 11.744 139.884 12.352 139.884 13.632V13.728H138.94V15.968Z" fill="black"/>
</svg>
